<svg width="340" height="340" viewBox="0 0 340 340" fill="none" xmlns="http://www.w3.org/2000/svg">
<path d="M335 170C335 261.127 261.127 335 170 335C78.873 335 5 261.127 5 170C5 78.873 78.873 5 170 5C261.127 5 335 78.873 335 170Z" fill="white" stroke="black" stroke-width="10"/>
<path d="M138.448 236.48C136.624 236.48 134.944 236.144 133.408 235.472C131.904 234.768 130.576 233.808 129.424 232.592C128.304 231.376 127.424 229.984 126.784 228.416C126.176 226.848 125.872 225.184 125.872 223.424C125.872 221.056 126.4 218.896 127.456 216.944C128.512 214.992 129.984 213.44 131.872 212.288C133.76 211.136 135.936 210.56 138.4 210.56C140.736 210.56 142.8 211.104 144.592 212.192C146.384 213.248 147.712 214.688 148.576 216.512L145.408 217.52C144.704 216.24 143.712 215.248 142.432 214.544C141.184 213.808 139.792 213.44 138.256 213.44C136.592 213.44 135.072 213.872 133.696 214.736C132.32 215.6 131.216 216.784 130.384 218.288C129.584 219.792 129.184 221.504 129.184 223.424C129.184 225.312 129.6 227.024 130.432 228.56C131.264 230.096 132.368 231.328 133.744 232.256C135.12 233.152 136.64 233.6 138.304 233.6C139.392 233.6 140.432 233.408 141.424 233.024C142.448 232.64 143.328 232.128 144.064 231.488C144.832 230.816 145.344 230.096 145.6 229.328L148.816 230.288C148.368 231.472 147.616 232.544 146.56 233.504C145.536 234.432 144.32 235.168 142.912 235.712C141.536 236.224 140.048 236.48 138.448 236.48ZM160.184 236V213.92H151.256V210.992H172.376V213.92H163.448V236H160.184ZM174.662 228.8C174.662 227.232 175.11 225.888 176.006 224.768C176.902 223.616 178.134 222.736 179.702 222.128C181.302 221.488 183.142 221.168 185.222 221.168C186.438 221.168 187.702 221.264 189.014 221.456C190.326 221.648 191.494 221.936 192.518 222.32V220.208C192.518 218.096 191.894 216.416 190.646 215.168C189.398 213.92 187.67 213.296 185.462 213.296C184.118 213.296 182.79 213.552 181.478 214.064C180.198 214.544 178.854 215.264 177.446 216.224L176.198 213.92C177.83 212.8 179.43 211.968 180.998 211.424C182.566 210.848 184.166 210.56 185.798 210.56C188.87 210.56 191.302 211.44 193.094 213.2C194.886 214.96 195.782 217.392 195.782 220.496V232.064C195.782 232.512 195.878 232.848 196.07 233.072C196.262 233.264 196.566 233.376 196.982 233.408V236C196.63 236.032 196.326 236.064 196.07 236.096C195.814 236.128 195.622 236.128 195.494 236.096C194.694 236.064 194.086 235.808 193.67 235.328C193.254 234.848 193.03 234.336 192.998 233.792L192.95 231.968C191.83 233.408 190.374 234.528 188.582 235.328C186.79 236.096 184.966 236.48 183.11 236.48C181.51 236.48 180.054 236.144 178.742 235.472C177.462 234.768 176.454 233.84 175.718 232.688C175.014 231.504 174.662 230.208 174.662 228.8ZM191.414 230.72C191.766 230.272 192.038 229.84 192.23 229.424C192.422 229.008 192.518 228.64 192.518 228.32V224.672C191.43 224.256 190.294 223.936 189.11 223.712C187.958 223.488 186.79 223.376 185.606 223.376C183.27 223.376 181.382 223.84 179.942 224.768C178.502 225.696 177.782 226.96 177.782 228.56C177.782 229.488 178.022 230.368 178.502 231.2C178.982 232 179.686 232.672 180.614 233.216C181.542 233.728 182.63 233.984 183.878 233.984C185.446 233.984 186.902 233.68 188.246 233.072C189.622 232.464 190.678 231.68 191.414 230.72ZM208.653 236V213.92H199.725V210.992H220.845V213.92H211.917V236H208.653ZM236.088 236.48C234.296 236.48 232.632 236.144 231.096 235.472C229.56 234.768 228.232 233.824 227.112 232.64C225.992 231.424 225.112 230.032 224.472 228.464C223.864 226.896 223.56 225.216 223.56 223.424C223.56 221.088 224.088 218.944 225.144 216.992C226.232 215.04 227.72 213.488 229.608 212.336C231.496 211.152 233.64 210.56 236.04 210.56C238.504 210.56 240.648 211.152 242.472 212.336C244.328 213.52 245.784 215.088 246.84 217.04C247.896 218.96 248.424 221.072 248.424 223.376C248.424 223.632 248.424 223.888 248.424 224.144C248.424 224.368 248.408 224.544 248.376 224.672H226.968C227.128 226.464 227.624 228.064 228.456 229.472C229.32 230.848 230.424 231.952 231.768 232.784C233.144 233.584 234.632 233.984 236.232 233.984C237.864 233.984 239.4 233.568 240.84 232.736C242.312 231.904 243.336 230.816 243.912 229.472L246.744 230.24C246.232 231.424 245.448 232.496 244.392 233.456C243.336 234.416 242.088 235.168 240.648 235.712C239.24 236.224 237.72 236.48 236.088 236.48ZM226.872 222.32H245.352C245.224 220.496 244.728 218.896 243.864 217.52C243.032 216.144 241.928 215.072 240.552 214.304C239.208 213.504 237.72 213.104 236.088 213.104C234.456 213.104 232.968 213.504 231.624 214.304C230.28 215.072 229.176 216.16 228.312 217.568C227.48 218.944 227 220.528 226.872 222.32ZM253.411 236V211.04H256.675V231.584L271.891 210.992H274.819V236H271.555V215.792L256.579 236H253.411ZM264.163 207.824C261.987 207.824 260.307 207.312 259.123 206.288C257.939 205.264 257.347 203.968 257.347 202.4H259.747C259.747 203.36 260.099 204.16 260.803 204.8C261.539 205.44 262.659 205.76 264.163 205.76C265.635 205.76 266.707 205.456 267.379 204.848C268.083 204.24 268.483 203.424 268.579 202.4H270.931C270.931 203.968 270.339 205.264 269.155 206.288C267.971 207.312 266.307 207.824 264.163 207.824Z" fill="black"/>
<path d="M99.768 159.792C103.352 160.389 106.467 161.755 109.112 163.888C111.757 165.936 113.805 168.581 115.256 171.824C116.792 175.067 117.56 178.651 117.56 182.576C117.56 187.867 116.195 192.475 113.464 196.4C110.733 200.325 106.851 203.355 101.816 205.488C96.8667 207.707 91.0213 208.816 84.28 208.816C77.7947 208.816 72.0347 207.749 67 205.616C62.0507 203.568 57.912 200.539 54.584 196.528L64.312 184.368C66.5307 187.099 69.176 189.232 72.248 190.768C75.4053 192.389 79.2453 193.2 83.768 193.2C88.9733 193.2 92.9413 192.133 95.672 190C98.4027 187.952 99.768 184.837 99.768 180.656C99.768 176.219 98.1893 172.805 95.032 170.416C91.8747 168.027 87.096 166.832 80.696 166.832H77.112V154.032H81.08C86.2853 154.032 90.3387 152.837 93.24 150.448C96.2267 148.059 97.72 145.072 97.72 141.488C97.72 139.184 97.1653 137.264 96.056 135.728C94.9467 134.192 93.4107 133.04 91.448 132.272C89.5707 131.504 87.352 131.12 84.792 131.12C80.952 131.12 77.4533 132.016 74.296 133.808C71.1387 135.6 68.5787 138.117 66.616 141.36L55.864 129.328C57.656 126.683 60.088 124.421 63.16 122.544C66.3173 120.581 69.9013 119.045 73.912 117.936C78.008 116.827 82.2747 116.272 86.712 116.272C92.5147 116.272 97.592 117.211 101.944 119.088C106.381 120.965 109.837 123.611 112.312 127.024C114.787 130.437 116.024 134.405 116.024 138.928C116.024 142.256 115.341 145.413 113.976 148.4C112.611 151.387 110.691 153.904 108.216 155.952C105.827 157.915 103.011 159.195 99.768 159.792ZM194.695 152.496C194.695 160.005 193.244 166.704 190.343 172.592C187.527 178.395 183.602 182.96 178.567 186.288C173.618 189.616 167.986 191.28 161.671 191.28C155.356 191.28 149.682 189.616 144.647 186.288C139.698 182.96 135.772 178.395 132.871 172.592C130.055 166.704 128.647 160.005 128.647 152.496C128.647 144.987 130.055 138.331 132.871 132.528C135.772 126.64 139.698 122.032 144.647 118.704C149.682 115.291 155.356 113.584 161.671 113.584C167.986 113.584 173.618 115.291 178.567 118.704C183.602 122.032 187.527 126.64 190.343 132.528C193.244 138.331 194.695 144.987 194.695 152.496ZM177.415 152.496C177.415 147.888 176.732 143.877 175.367 140.464C174.087 136.965 172.252 134.235 169.863 132.272C167.474 130.309 164.743 129.328 161.671 129.328C158.514 129.328 155.74 130.309 153.351 132.272C150.962 134.235 149.084 136.965 147.719 140.464C146.439 143.877 145.799 147.888 145.799 152.496C145.799 157.104 146.439 161.115 147.719 164.528C149.084 167.941 150.962 170.629 153.351 172.592C155.74 174.555 158.514 175.536 161.671 175.536C164.743 175.536 167.431 174.555 169.735 172.592C172.124 170.629 174.002 167.941 175.367 164.528C176.732 161.029 177.415 157.019 177.415 152.496ZM248.872 137.648V151.472H235.688V165.936H220.2V151.472H207.016V137.648H220.2V123.184H235.688V137.648H248.872Z" fill="black"/>
</svg>
